<?xml version="1.0" encoding="UTF-8" standalone="no"?>
<svg
   viewBox="0 0 326.39 91.54"
   version="1.1"
   id="svg33"
   sodipodi:docname="bright-logo-dark.svg"
   inkscape:version="1.2.1 (9c6d41e, 2022-07-14)"
   xmlns:inkscape="http://www.inkscape.org/namespaces/inkscape"
   xmlns:sodipodi="http://sodipodi.sourceforge.net/DTD/sodipodi-0.dtd"
   xmlns="http://www.w3.org/2000/svg"
   xmlns:svg="http://www.w3.org/2000/svg"
   xmlns:rdf="http://www.w3.org/1999/02/22-rdf-syntax-ns#"
   xmlns:cc="http://creativecommons.org/ns#"
   xmlns:dc="http://purl.org/dc/elements/1.1/">
  <sodipodi:namedview
     id="namedview35"
     pagecolor="#ffffff"
     bordercolor="#000000"
     borderopacity="0.25"
     inkscape:showpageshadow="2"
     inkscape:pageopacity="0.0"
     inkscape:pagecheckerboard="0"
     inkscape:deskcolor="#d1d1d1"
     showgrid="false"
     inkscape:zoom="2.5781079"
     inkscape:cx="163.49199"
     inkscape:cy="45.963941"
     inkscape:window-width="1800"
     inkscape:window-height="1097"
     inkscape:window-x="0"
     inkscape:window-y="682"
     inkscape:window-maximized="1"
     inkscape:current-layer="Layer_2-2" />
  <defs
     id="defs11">
    <style
       id="style9">.cls-1{fill:#071d3e;}.cls-2{fill:#f5c434;}</style>
  </defs>
  <title
     id="title13">Bright.logo.azul</title>
  <g
     id="Layer_2"
     data-name="Layer 2">
    <g
       id="Layer_2-2"
       data-name="Layer 2">
      <path
         class="cls-1"
         d="m 92.6,0 c 2.142865,0 3.88,1.7371352 3.88,3.88 v 38.54 c 0,1.305854 0.06962,2.544405 0.203284,3.715999 C 97.880239,56.627829 104.21273,61.75 111.67,61.75 c 9.27,0 15.78,-6.8 15.78,-16.47 0,-9.67 -6.21,-16.28 -15.58,-16.28 -2.27842,0.07272 -4.52617,0.546646 -6.64,1.4 -2.54127,0.999397 -5.292391,-0.869292 -5.3,-3.6 v -0.33 c -0.0068,-1.532348 0.89116,-2.924399 2.29,-3.55 3.51497,-1.5058 7.30638,-2.258632 11.13,-2.21 12.13,0 22.79,10.26 22.79,23.48 0,14 -9.08,25.85 -24.47,25.85 C 97.76,70 87.8,59.58 87.8,44 V 3.88 C 87.8,1.7371352 89.537135,0 91.68,0 Z"
         id="path15"
         sodipodi:nodetypes="ssssssccccccscssss"
         style="fill:#e6e6e6" />
      <path
         class="cls-1"
         d="M148.62,21.7h.53A3.88,3.88,0,0,1,153,25.58v1.55h.2c3-4.64,6.48-6.16,12.82-6.42.83,0,2-.19,2.49.66,1,1.83.8,5.8-.28,7.35a.81.81,0,0,1-.6.28h-.92c-8.38,0-13.31,5.13-13.31,18V65.17a3.88,3.88,0,0,1-3.88,3.88h-.93a3.88,3.88,0,0,1-3.88-3.88V25.58A3.88,3.88,0,0,1,148.62,21.7Z"
         id="path17"
         style="fill:#e6e6e6" />
      <path
         class="cls-1"
         d="M181.68,5.92a5.07,5.07,0,0,1,5.22,5.23,5.23,5.23,0,0,1-10.45,0A5.07,5.07,0,0,1,181.68,5.92Zm-4.35,59.25V25.58a3.88,3.88,0,0,1,3.88-3.88h.93A3.88,3.88,0,0,1,186,25.58V65.17a3.88,3.88,0,0,1-3.88,3.88h-.93A3.88,3.88,0,0,1,177.33,65.17Z"
         id="path19"
         style="fill:#e6e6e6" />
      <path
         class="cls-1"
         d="M230.14,64.43a3.91,3.91,0,0,1-2.43,3.6A24.93,24.93,0,0,1,219,70C205.18,70,194.53,59.78,194.53,46c0-14.21,9.66-25.26,24.46-25.26,14.4,0,23.28,11.65,23.28,23.48V65.3c0,17.76-10.85,26.24-24.76,26.24a46.16,46.16,0,0,1-11.93-1.66,3.86,3.86,0,0,1-2.7-4.72l.13-.51a3.87,3.87,0,0,1,4.68-2.78,38.81,38.81,0,0,0,9.43,1.39c7.79,0,16.47-3.46,16.47-15V46.17c0-10.66-6.9-17.17-15-17.17-10.36,0-15.39,8.19-15.39,17.46s6.9,15.29,15.88,15.29a16.09,16.09,0,0,0,5.75-1.18,3.85,3.85,0,0,1,5.3,3.54Z"
         id="path21"
         style="fill:#e6e6e6" />
      <path
         class="cls-1"
         d="M251.79,65.17V3.88A3.88,3.88,0,0,1,255.66,0h.93a3.88,3.88,0,0,1,3.88,3.88V18.51a3.86,3.86,0,0,0,5.32,3.6,17.15,17.15,0,0,1,6.81-1.4c10.95,0,19.63,4.74,19.63,20.72V65.17a3.88,3.88,0,0,1-3.88,3.88h-.92a3.88,3.88,0,0,1-3.88-3.88V41.43C283.55,31.76,278.22,29,272,29s-11.54,5.13-11.54,12.43V65.17a3.88,3.88,0,0,1-3.88,3.88h-.93A3.87,3.87,0,0,1,251.79,65.17Z"
         id="path23"
         style="fill:#e6e6e6" />
      <path
         class="cls-1"
         d="M322.51,30H313.3a3.88,3.88,0,0,0-3.88,3.88V51a9.8,9.8,0,0,0,9.8,9.8h3.29a3.88,3.88,0,0,1,3.88,3.87v.53a3.88,3.88,0,0,1-3.88,3.88h-7.76c-8.88,0-14-5.92-14-15.29v-40a3.88,3.88,0,0,1,3.88-3.88h.92a3.88,3.88,0,0,1,3.88,3.88v4.08c.24,3.2,1,3.87,3.88,3.88h9.21a3.88,3.88,0,0,1,3.88,3.88v.53A3.88,3.88,0,0,1,322.51,30Z"
         id="path25"
         style="fill:#e6e6e6" />
      <path
         class="cls-2"
         d="M68.34,38.1a3.2,3.2,0,0,0-3-3.21A43,43,0,0,0,21.19,65a3.22,3.22,0,0,0,3.06,4.19H65.13A3.21,3.21,0,0,0,68.34,66Z"
         id="path27" />
      <path
         class="cls-1"
         d="m 54.49,28.18 c 3.453076,-0.529745 6.951374,-0.70399 10.44,-0.52 1.842485,0.115037 3.402086,-1.343945 3.41,-3.19 V 4.06 c 0,-1.772834 -1.437166,-3.21 -3.21,-3.21 H 3.21 C 1.437166,0.85 0,2.287166 0,4.06 V 66 c 0,1.772834 1.437166,3.21 3.21,3.21 h 7 c 1.490694,9.56e-4 2.784594,-1.027529 3.12,-2.48 4.50885,-20.079096 20.828957,-35.364327 41.16,-38.55 z"
         id="path29"
         style="fill:#e6e6e6"
         sodipodi:nodetypes="cccssssssccc" />
    </g>
  </g>
  <metadata
     id="metadata258">
    <rdf:RDF>
      <cc:Work
         rdf:about="">
        <dc:title>Bright.logo.azul</dc:title>
      </cc:Work>
    </rdf:RDF>
  </metadata>
</svg>
