<svg xmlns="http://www.w3.org/2000/svg" viewBox="0 0 90.59 90.59"><defs><style>.cls-1{fill:#f5c434;}.cls-2{fill:#071d3e;}</style></defs><title>Icon</title><g id="Layer_2" data-name="Layer 2"><g id="Layer_2-2" data-name="Layer 2"><path class="cls-1" d="M90.59,49.37a4.25,4.25,0,0,0-3.91-4.25A57,57,0,0,0,28.09,85a4.27,4.27,0,0,0,4.06,5.55H86.33a4.26,4.26,0,0,0,4.26-4.26Z"/><path class="cls-2" d="M72.23,36.24a66.64,66.64,0,0,1,13.83-.7,4.25,4.25,0,0,0,4.53-4.23V4.25A4.25,4.25,0,0,0,86.33,0H4.25A4.25,4.25,0,0,0,0,4.25V86.33a4.25,4.25,0,0,0,4.25,4.26h9.26a4.24,4.24,0,0,0,4.13-3.29A66.43,66.43,0,0,1,72.23,36.24Z"/></g></g></svg>